<?xml version="1.0" encoding="UTF-8"?>
<svg width="20px" height="20px" viewBox="0 0 20 20" version="1.1" xmlns="http://www.w3.org/2000/svg" xmlns:xlink="http://www.w3.org/1999/xlink">
    <!-- Generator: sketchtool 56.3 (101010) - https://sketch.com -->
    <title>B59AED43-60CF-49DC-A364-B85A6F38B07D</title>
    <desc>Created with sketchtool.</desc>
    <g id="⚙-Symbols" stroke="none" stroke-width="1" fill="none" fill-rule="evenodd">
        <g id="Component-Guide" transform="translate(-797.000000, -3652.000000)" fill="#fff">
            <g id="Icon-Set" transform="translate(36.000000, 3537.000000)">
                <g transform="translate(31.000000, 113.000000)" id="ic_cart">
                    <g transform="translate(728.000000, 0.000000)">
                        <path d="M8.27668514,7.18622365 C8.97285259,5.35253924 10.6554825,4.69473021 11.9227012,4.69473021 C13.1899199,4.69473021 14.8725497,5.35253924 15.5688762,7.18622365 L8.27668514,7.18622365 Z M19.5776814,9.08318461 L18.6050501,17.7041559 C18.3017189,18.5683233 17.668507,19.0336314 16.6834754,19.1256245 L7.32138252,19.1262923 C6.32474546,19.0339653 5.71681116,18.5818468 5.41014137,17.7043229 L4.4373511,9.08301765 L8.31563491,9.07917765 L19.5776814,9.08318461 Z M20.8140583,7.19841148 L17.5416421,7.18672452 C16.7717085,4.16013516 14.156351,2.80361273 11.8785051,2.80361273 L11.834945,2.80361273 C9.57728936,2.82030839 7.00199445,4.18334212 6.27450821,7.1863906 L3.28014561,7.18922887 L3.20924114,7.19657496 C2.71354576,7.29140631 2.45695424,7.66722563 2.50591966,8.23187287 L3.62083683,18.1327335 L3.64325282,18.2364136 C4.28457263,20.2004911 5.48819988,21.1963873 7.22090803,21.1963873 L16.7941245,21.1963873 C18.5023499,21.1963873 19.7395217,20.1727763 20.3717797,18.2362466 L20.3884725,18.1851579 L21.4825634,8.24973723 C21.5715915,7.70662739 21.3153179,7.3037611 20.8140583,7.19841148 L20.8140583,7.19841148 Z" id="Fill-1"></path>
                    </g>
                </g>
            </g>
        </g>
    </g>
</svg>
