<svg data-name="Layer 1" xmlns="http://www.w3.org/2000/svg" viewBox="0 0 83.31 70.08">
    <path d="m79.54 23.66-5-18.31a4.22 4.22 0 0 0-4.07-3.11H15.82a4.23 4.23 0 0 0-4.08 3.11l-5 18.31a9.11 9.11 0 0 0 8.21 11.55h.43A9.25 9.25 0 0 0 24.61 26a9.26 9.26 0 0 0 18.52 0 9.26 9.26 0 0 0 9.26 9.25A9.25 9.25 0 0 0 61.65 26a9.26 9.26 0 0 0 9.26 9.25h.43a9.1 9.1 0 0 0 8.2-11.59z"/>
    <path d="M70.91 39.14a13.16 13.16 0 0 1-9.26-3.81 13.16 13.16 0 0 1-18.52 0 13.16 13.16 0 0 1-18.52 0 13.14 13.14 0 0 1-9.26 3.81h-.6a11 11 0 0 1-1.14-.1v21.04A3.93 3.93 0 0 0 17.53 64h51.54A3.93 3.93 0 0 0 73 60.08V39a12.16 12.16 0 0 1-1.48.15zM51.08 58.66H38.84V45.6a1.55 1.55 0 0 1 1.54-1.55h9.15a1.55 1.55 0 0 1 1.55 1.55z"/>
</svg>
